<svg xmlns="http://www.w3.org/2000/svg" height="1.13rem" fill="#5c0504" viewBox="0 -960 960 960"><path d="m480-213.33q22.667 0 38-15.333 15.333-15.333 15.333-38 0-22.667-15.333-38-15.333-15.333-38-15.333t-38 15.333q-15.333 15.333-15.333 38 0 22.667 15.333 38 15.333 15.333 38 15.333zm-53.333-213.33h106.67v-320h-106.67zm-146.67 426.67-280-280v-400l280-280h400l280 280v400l-280 280zm45.333-106.67h309.33l218.67-218.67v-309.33l-218.67-218.67h-309.33l-218.67 218.67v309.33z" stroke-width="1.3333"/></svg>